<mxfile host="app.diagrams.net" modified="2023-07-14T20:41:05.906Z" agent="Mozilla/5.0 (Windows NT 10.0; Win64; x64) AppleWebKit/537.36 (KHTML, like Gecko) Chrome/114.0.0.0 Safari/537.36" etag="X3usW3AfvPcs_0xv6DDt" version="21.6.2" type="github">
  <diagram id="C5RBs43oDa-KdzZeNtuy" name="Page-1">
    <mxGraphModel dx="1434" dy="756" grid="1" gridSize="10" guides="1" tooltips="1" connect="1" arrows="1" fold="1" page="1" pageScale="1" pageWidth="291" pageHeight="413" math="0" shadow="0">
      <root>
        <mxCell id="WIyWlLk6GJQsqaUBKTNV-0" />
        <mxCell id="WIyWlLk6GJQsqaUBKTNV-1" parent="WIyWlLk6GJQsqaUBKTNV-0" />
        <mxCell id="EhJb6Xasne0iyQq12Wxb-0" value="" style="rounded=0;html=1;jettySize=auto;orthogonalLoop=1;fontSize=11;endArrow=block;endFill=0;endSize=8;strokeWidth=1;shadow=0;labelBackgroundColor=none;edgeStyle=orthogonalEdgeStyle;" edge="1" parent="WIyWlLk6GJQsqaUBKTNV-1" source="EhJb6Xasne0iyQq12Wxb-2" target="EhJb6Xasne0iyQq12Wxb-6">
          <mxGeometry relative="1" as="geometry" />
        </mxCell>
        <mxCell id="EhJb6Xasne0iyQq12Wxb-1" style="edgeStyle=orthogonalEdgeStyle;rounded=0;orthogonalLoop=1;jettySize=auto;html=1;exitX=0.5;exitY=0;exitDx=0;exitDy=0;entryX=0.5;entryY=0.967;entryDx=0;entryDy=0;entryPerimeter=0;" edge="1" parent="WIyWlLk6GJQsqaUBKTNV-1" source="EhJb6Xasne0iyQq12Wxb-2" target="EhJb6Xasne0iyQq12Wxb-18">
          <mxGeometry relative="1" as="geometry" />
        </mxCell>
        <mxCell id="EhJb6Xasne0iyQq12Wxb-2" value="movimentacaoEstoque" style="rounded=1;whiteSpace=wrap;html=1;fontSize=12;glass=0;strokeWidth=1;shadow=0;" vertex="1" parent="WIyWlLk6GJQsqaUBKTNV-1">
          <mxGeometry x="130" y="235" width="140" height="40" as="geometry" />
        </mxCell>
        <mxCell id="EhJb6Xasne0iyQq12Wxb-3" value="Sim" style="edgeStyle=orthogonalEdgeStyle;rounded=0;orthogonalLoop=1;jettySize=auto;html=1;entryX=0;entryY=0.5;entryDx=0;entryDy=0;" edge="1" parent="WIyWlLk6GJQsqaUBKTNV-1" source="EhJb6Xasne0iyQq12Wxb-6" target="EhJb6Xasne0iyQq12Wxb-11">
          <mxGeometry relative="1" as="geometry" />
        </mxCell>
        <mxCell id="EhJb6Xasne0iyQq12Wxb-4" style="edgeStyle=orthogonalEdgeStyle;rounded=0;orthogonalLoop=1;jettySize=auto;html=1;entryX=0.5;entryY=0;entryDx=0;entryDy=0;" edge="1" parent="WIyWlLk6GJQsqaUBKTNV-1" source="EhJb6Xasne0iyQq12Wxb-6" target="EhJb6Xasne0iyQq12Wxb-8">
          <mxGeometry relative="1" as="geometry" />
        </mxCell>
        <mxCell id="EhJb6Xasne0iyQq12Wxb-5" value="Não" style="edgeLabel;html=1;align=center;verticalAlign=middle;resizable=0;points=[];" vertex="1" connectable="0" parent="EhJb6Xasne0iyQq12Wxb-4">
          <mxGeometry x="-0.175" y="1" relative="1" as="geometry">
            <mxPoint as="offset" />
          </mxGeometry>
        </mxCell>
        <mxCell id="EhJb6Xasne0iyQq12Wxb-6" value="Produdo já cadastrado?" style="rhombus;whiteSpace=wrap;html=1;shadow=0;fontFamily=Helvetica;fontSize=12;align=center;strokeWidth=1;spacing=6;spacingTop=-4;" vertex="1" parent="WIyWlLk6GJQsqaUBKTNV-1">
          <mxGeometry x="150" y="320" width="100" height="80" as="geometry" />
        </mxCell>
        <mxCell id="EhJb6Xasne0iyQq12Wxb-7" style="edgeStyle=orthogonalEdgeStyle;rounded=0;orthogonalLoop=1;jettySize=auto;html=1;entryX=0;entryY=0.5;entryDx=0;entryDy=0;" edge="1" parent="WIyWlLk6GJQsqaUBKTNV-1" source="EhJb6Xasne0iyQq12Wxb-8" target="EhJb6Xasne0iyQq12Wxb-26">
          <mxGeometry relative="1" as="geometry" />
        </mxCell>
        <mxCell id="EhJb6Xasne0iyQq12Wxb-8" value="incluirProduto" style="rounded=1;whiteSpace=wrap;html=1;fontSize=12;glass=0;strokeWidth=1;shadow=0;" vertex="1" parent="WIyWlLk6GJQsqaUBKTNV-1">
          <mxGeometry x="140" y="480" width="120" height="40" as="geometry" />
        </mxCell>
        <mxCell id="EhJb6Xasne0iyQq12Wxb-9" style="edgeStyle=orthogonalEdgeStyle;rounded=0;orthogonalLoop=1;jettySize=auto;html=1;entryX=0.5;entryY=0;entryDx=0;entryDy=0;" edge="1" parent="WIyWlLk6GJQsqaUBKTNV-1" source="EhJb6Xasne0iyQq12Wxb-11" target="EhJb6Xasne0iyQq12Wxb-28">
          <mxGeometry relative="1" as="geometry" />
        </mxCell>
        <mxCell id="EhJb6Xasne0iyQq12Wxb-10" style="edgeStyle=orthogonalEdgeStyle;rounded=0;orthogonalLoop=1;jettySize=auto;html=1;entryX=0.5;entryY=0;entryDx=0;entryDy=0;" edge="1" parent="WIyWlLk6GJQsqaUBKTNV-1" source="EhJb6Xasne0iyQq12Wxb-11" target="EhJb6Xasne0iyQq12Wxb-30">
          <mxGeometry relative="1" as="geometry" />
        </mxCell>
        <mxCell id="EhJb6Xasne0iyQq12Wxb-11" value="Verificar entrada ou saida" style="rounded=1;whiteSpace=wrap;html=1;fontSize=12;glass=0;strokeWidth=1;shadow=0;" vertex="1" parent="WIyWlLk6GJQsqaUBKTNV-1">
          <mxGeometry x="420" y="200" width="120" height="40" as="geometry" />
        </mxCell>
        <mxCell id="EhJb6Xasne0iyQq12Wxb-12" value="Estoque" style="swimlane;fontStyle=1;childLayout=stackLayout;horizontal=1;startSize=30;horizontalStack=0;resizeParent=1;resizeParentMax=0;resizeLast=0;collapsible=1;marginBottom=0;whiteSpace=wrap;html=1;fontFamily=Lucida Console;fillColor=#dae8fc;strokeColor=#6c8ebf;" vertex="1" parent="WIyWlLk6GJQsqaUBKTNV-1">
          <mxGeometry x="400" y="40" width="160" height="120" as="geometry" />
        </mxCell>
        <mxCell id="EhJb6Xasne0iyQq12Wxb-13" value="COD_PRODUTO" style="text;strokeColor=none;fillColor=none;align=left;verticalAlign=middle;spacingLeft=4;spacingRight=4;overflow=hidden;points=[[0,0.5],[1,0.5]];portConstraint=eastwest;rotatable=0;whiteSpace=wrap;html=1;fontStyle=1" vertex="1" parent="EhJb6Xasne0iyQq12Wxb-12">
          <mxGeometry y="30" width="160" height="40" as="geometry" />
        </mxCell>
        <mxCell id="EhJb6Xasne0iyQq12Wxb-14" value="SALDO" style="text;strokeColor=none;fillColor=none;align=left;verticalAlign=middle;spacingLeft=4;spacingRight=4;overflow=hidden;points=[[0,0.5],[1,0.5]];portConstraint=eastwest;rotatable=0;whiteSpace=wrap;html=1;fontStyle=1" vertex="1" parent="EhJb6Xasne0iyQq12Wxb-12">
          <mxGeometry y="70" width="160" height="50" as="geometry" />
        </mxCell>
        <mxCell id="EhJb6Xasne0iyQq12Wxb-15" value="&lt;h4&gt;&lt;font face=&quot;Lucida Console&quot;&gt;&lt;b&gt;movimentacaoEstoque&lt;br&gt;&lt;/b&gt;&lt;b&gt;(Evento)&lt;/b&gt;&lt;/font&gt;&lt;/h4&gt;" style="swimlane;fontStyle=0;childLayout=stackLayout;horizontal=1;startSize=30;horizontalStack=0;resizeParent=1;resizeParentMax=0;resizeLast=0;collapsible=1;marginBottom=0;whiteSpace=wrap;html=1;fillColor=#d5e8d4;strokeColor=#82b366;" vertex="1" parent="WIyWlLk6GJQsqaUBKTNV-1">
          <mxGeometry x="120" y="40" width="160" height="120" as="geometry" />
        </mxCell>
        <mxCell id="EhJb6Xasne0iyQq12Wxb-16" value="&lt;b&gt;COD_PRODUTO&lt;/b&gt; num" style="text;strokeColor=none;fillColor=none;align=left;verticalAlign=middle;spacingLeft=4;spacingRight=4;overflow=hidden;points=[[0,0.5],[1,0.5]];portConstraint=eastwest;rotatable=0;whiteSpace=wrap;html=1;" vertex="1" parent="EhJb6Xasne0iyQq12Wxb-15">
          <mxGeometry y="30" width="160" height="30" as="geometry" />
        </mxCell>
        <mxCell id="EhJb6Xasne0iyQq12Wxb-17" value="&lt;b&gt;ENTRADA_SAIDA&lt;/b&gt;&amp;nbsp; texto" style="text;strokeColor=none;fillColor=none;align=left;verticalAlign=middle;spacingLeft=4;spacingRight=4;overflow=hidden;points=[[0,0.5],[1,0.5]];portConstraint=eastwest;rotatable=0;whiteSpace=wrap;html=1;" vertex="1" parent="EhJb6Xasne0iyQq12Wxb-15">
          <mxGeometry y="60" width="160" height="30" as="geometry" />
        </mxCell>
        <mxCell id="EhJb6Xasne0iyQq12Wxb-18" value="&lt;b&gt;QUANTIDADE&lt;/b&gt; num" style="text;strokeColor=none;fillColor=none;align=left;verticalAlign=middle;spacingLeft=4;spacingRight=4;overflow=hidden;points=[[0,0.5],[1,0.5]];portConstraint=eastwest;rotatable=0;whiteSpace=wrap;html=1;" vertex="1" parent="EhJb6Xasne0iyQq12Wxb-15">
          <mxGeometry y="90" width="160" height="30" as="geometry" />
        </mxCell>
        <mxCell id="EhJb6Xasne0iyQq12Wxb-19" style="edgeStyle=orthogonalEdgeStyle;rounded=0;orthogonalLoop=1;jettySize=auto;html=1;entryX=0;entryY=0.5;entryDx=0;entryDy=0;" edge="1" parent="WIyWlLk6GJQsqaUBKTNV-1" source="EhJb6Xasne0iyQq12Wxb-20" target="EhJb6Xasne0iyQq12Wxb-2">
          <mxGeometry relative="1" as="geometry" />
        </mxCell>
        <mxCell id="EhJb6Xasne0iyQq12Wxb-20" value="Start" style="ellipse;whiteSpace=wrap;html=1;aspect=fixed;fontColor=#FFFFFF;fillColor=#000000;" vertex="1" parent="WIyWlLk6GJQsqaUBKTNV-1">
          <mxGeometry x="40" y="230" width="50" height="50" as="geometry" />
        </mxCell>
        <mxCell id="EhJb6Xasne0iyQq12Wxb-21" style="edgeStyle=orthogonalEdgeStyle;rounded=0;orthogonalLoop=1;jettySize=auto;html=1;entryX=0.5;entryY=0;entryDx=0;entryDy=0;" edge="1" parent="WIyWlLk6GJQsqaUBKTNV-1" source="EhJb6Xasne0iyQq12Wxb-22" target="EhJb6Xasne0iyQq12Wxb-36">
          <mxGeometry relative="1" as="geometry" />
        </mxCell>
        <mxCell id="EhJb6Xasne0iyQq12Wxb-22" value="SALDO -= QUANTIDADE" style="rounded=0;whiteSpace=wrap;html=1;" vertex="1" parent="WIyWlLk6GJQsqaUBKTNV-1">
          <mxGeometry x="480" y="350" width="120" height="80" as="geometry" />
        </mxCell>
        <mxCell id="EhJb6Xasne0iyQq12Wxb-23" style="edgeStyle=orthogonalEdgeStyle;rounded=0;orthogonalLoop=1;jettySize=auto;html=1;entryX=0.5;entryY=0;entryDx=0;entryDy=0;" edge="1" parent="WIyWlLk6GJQsqaUBKTNV-1" source="EhJb6Xasne0iyQq12Wxb-24" target="EhJb6Xasne0iyQq12Wxb-36">
          <mxGeometry relative="1" as="geometry" />
        </mxCell>
        <mxCell id="EhJb6Xasne0iyQq12Wxb-24" value="SALDO += QUANTIDADE" style="rounded=0;whiteSpace=wrap;html=1;" vertex="1" parent="WIyWlLk6GJQsqaUBKTNV-1">
          <mxGeometry x="360" y="350" width="120" height="80" as="geometry" />
        </mxCell>
        <mxCell id="EhJb6Xasne0iyQq12Wxb-25" style="edgeStyle=orthogonalEdgeStyle;rounded=0;orthogonalLoop=1;jettySize=auto;html=1;" edge="1" parent="WIyWlLk6GJQsqaUBKTNV-1" source="EhJb6Xasne0iyQq12Wxb-26" target="EhJb6Xasne0iyQq12Wxb-33">
          <mxGeometry relative="1" as="geometry">
            <Array as="points">
              <mxPoint x="300" y="660" />
              <mxPoint x="780" y="660" />
            </Array>
          </mxGeometry>
        </mxCell>
        <mxCell id="EhJb6Xasne0iyQq12Wxb-26" value="SALDO = QUANTIDADE" style="rounded=0;whiteSpace=wrap;html=1;" vertex="1" parent="WIyWlLk6GJQsqaUBKTNV-1">
          <mxGeometry x="240" y="560" width="120" height="80" as="geometry" />
        </mxCell>
        <mxCell id="EhJb6Xasne0iyQq12Wxb-27" style="edgeStyle=orthogonalEdgeStyle;rounded=0;orthogonalLoop=1;jettySize=auto;html=1;entryX=0.583;entryY=0.025;entryDx=0;entryDy=0;entryPerimeter=0;" edge="1" parent="WIyWlLk6GJQsqaUBKTNV-1" source="EhJb6Xasne0iyQq12Wxb-28" target="EhJb6Xasne0iyQq12Wxb-24">
          <mxGeometry relative="1" as="geometry" />
        </mxCell>
        <mxCell id="EhJb6Xasne0iyQq12Wxb-28" value="entrada" style="ellipse;whiteSpace=wrap;html=1;" vertex="1" parent="WIyWlLk6GJQsqaUBKTNV-1">
          <mxGeometry x="400" y="275" width="60" height="40" as="geometry" />
        </mxCell>
        <mxCell id="EhJb6Xasne0iyQq12Wxb-29" style="edgeStyle=orthogonalEdgeStyle;rounded=0;orthogonalLoop=1;jettySize=auto;html=1;entryX=0.5;entryY=0;entryDx=0;entryDy=0;" edge="1" parent="WIyWlLk6GJQsqaUBKTNV-1" source="EhJb6Xasne0iyQq12Wxb-30" target="EhJb6Xasne0iyQq12Wxb-22">
          <mxGeometry relative="1" as="geometry" />
        </mxCell>
        <mxCell id="EhJb6Xasne0iyQq12Wxb-30" value="saida" style="ellipse;whiteSpace=wrap;html=1;" vertex="1" parent="WIyWlLk6GJQsqaUBKTNV-1">
          <mxGeometry x="510" y="275" width="60" height="40" as="geometry" />
        </mxCell>
        <mxCell id="EhJb6Xasne0iyQq12Wxb-31" style="edgeStyle=orthogonalEdgeStyle;rounded=0;orthogonalLoop=1;jettySize=auto;html=1;entryX=0;entryY=0.5;entryDx=0;entryDy=0;" edge="1" parent="WIyWlLk6GJQsqaUBKTNV-1" source="EhJb6Xasne0iyQq12Wxb-32" target="EhJb6Xasne0iyQq12Wxb-33">
          <mxGeometry relative="1" as="geometry" />
        </mxCell>
        <mxCell id="EhJb6Xasne0iyQq12Wxb-32" value="excluirDoEstoque" style="rounded=1;whiteSpace=wrap;html=1;fontSize=12;glass=0;strokeWidth=1;shadow=0;" vertex="1" parent="WIyWlLk6GJQsqaUBKTNV-1">
          <mxGeometry x="520" y="590" width="120" height="40" as="geometry" />
        </mxCell>
        <mxCell id="EhJb6Xasne0iyQq12Wxb-33" value="&lt;font color=&quot;#fafafa&quot;&gt;End&lt;/font&gt;" style="ellipse;html=1;shape=endState;fillColor=strokeColor;" vertex="1" parent="WIyWlLk6GJQsqaUBKTNV-1">
          <mxGeometry x="750" y="580" width="60" height="60" as="geometry" />
        </mxCell>
        <mxCell id="EhJb6Xasne0iyQq12Wxb-34" value="Sim" style="edgeStyle=orthogonalEdgeStyle;rounded=0;orthogonalLoop=1;jettySize=auto;html=1;entryX=0;entryY=0.5;entryDx=0;entryDy=0;" edge="1" parent="WIyWlLk6GJQsqaUBKTNV-1" source="EhJb6Xasne0iyQq12Wxb-36" target="EhJb6Xasne0iyQq12Wxb-32">
          <mxGeometry relative="1" as="geometry" />
        </mxCell>
        <mxCell id="EhJb6Xasne0iyQq12Wxb-35" value="Não" style="edgeStyle=orthogonalEdgeStyle;rounded=0;orthogonalLoop=1;jettySize=auto;html=1;entryX=0.5;entryY=0;entryDx=0;entryDy=0;" edge="1" parent="WIyWlLk6GJQsqaUBKTNV-1" source="EhJb6Xasne0iyQq12Wxb-36" target="EhJb6Xasne0iyQq12Wxb-33">
          <mxGeometry relative="1" as="geometry" />
        </mxCell>
        <mxCell id="EhJb6Xasne0iyQq12Wxb-36" value="Saldo igual&lt;br&gt;ou menor&lt;br&gt;&amp;nbsp;que zero ?" style="rhombus;whiteSpace=wrap;html=1;shadow=0;fontFamily=Helvetica;fontSize=12;align=center;strokeWidth=1;spacing=6;spacingTop=-4;" vertex="1" parent="WIyWlLk6GJQsqaUBKTNV-1">
          <mxGeometry x="420" y="470" width="120" height="90" as="geometry" />
        </mxCell>
      </root>
    </mxGraphModel>
  </diagram>
</mxfile>
